<svg xmlns="http://www.w3.org/2000/svg" width="291.878" height="73.228" viewBox="0 0 291.878 73.228"><path fill="#15345A" d="M6.137 10.977c3.572-2.424 28.319-7.653 39.928-3.062 5.612 2.296 6.506 4.848 6.506 4.848v-2.297c0-4.719-7.017-7.27-7.017-7.27C41.983.006 37.263.262 29.482.006 24.634-.121 12.771 1.92 12.771 1.92.525 3.451 2.949 9.574 2.949 9.574-.624 11.87.397 15.697.397 15.697s1.531-1.786 5.74-4.72M1.29 23.223c0-.383-.511-3.316-.638-4.465-.256-1.786 2.806-1.913 2.806-1.913s-1.785-.638-2.296-.511c-.51.128-1.275.638-1.148 1.659.128.893.51 2.296.765 3.317 0 .127.511 2.168.511 1.913M57.545 68.38C51.55 39.806 36.369 19.778 36.369 19.778L57.545 68.38z"/><path fill="#15345A" d="M56.652 52.563c.51-13.522-9.185-40.438-9.185-40.438-1.657 1.914 9.185 40.438 9.185 40.438M2.183 33.045l1.531-2.169 1.148-1.658s1.148-3.189-2.679-2.424c-1.53.256-2.934 3.062 0 6.251"/><path fill="#15345A" d="M37.518 47.46c-1.403-2.424-2.551-4.594-3.316-5.868-4.082-7.398-9.44-13.395-13.65-21.048-4.847-8.802-7.653-8.675-7.653-8.675-6.762-2.041-9.312 4.848-9.312 4.848 3.316-4.72 11.353-3.061 12.755-1.913 1.787 1.53 7.017 12.246 10.079 17.476 2.423 4.082-1.021 10.46-1.915 12.119-1.147 1.53-2.55 2.934-4.082 3.699-3.954 2.041-4.591-.128-5.484-2.169 1.275.766 2.551 1.021 2.551 1.021s-3.571-1.913-4.592-5.357c-1.02-3.444-3.955-6.378-3.955-6.378.128 0 .255.255.383.382-.255.128-.255 0-.383-.127 0 0 1.531 3.955-1.658 4.083 0 0-5.486 0-5.868 1.147-.383 1.021.382 1.786 2.296 1.914 0 0-2.934 3.954.893 9.057 0 0 .893 1.658-.766 3.699-1.275 1.658-.892 3.062-.382 3.699.51 1.021 1.786 2.807 3.955 2.935 1.275 0 3.571.638 4.846 1.275.383.255 1.914.255 6.506 9.95 0 0-.892-5.868-4.846-10.588 4.336-1.786 15.562-6.761 19.644-12.374.893-1.147 1.403-2.041 1.658-2.679a277.781 277.781 0 0 1 2.934 5.996c.383 1.275 1.403 6.25-1.658 9.057-7.782 7.271-8.292 10.332-8.292 10.332 6.379-6.888 12.629-9.185 15.18-9.822 2.168 3.955 3.826 6.889 3.826 6.889-1.148-6.89-5.996-16.202-9.694-22.58m-25.131-5.358c0 .383.128.765.128 1.021-1.02-.893-2.169-1.785-2.552-2.041.638-.51 1.659-1.913 0-4.209 1.149 1.403 2.424 3.444 2.424 5.229m-1.53 10.078c-1.276.255-2.297-.256-2.552-.256-.255 0 3.954-5.357-4.719-2.806.254-.256.382-.511 2.168-1.276 1.914-.765 2.806-.638 3.827-.255 1.02.383 3.444 2.296 3.317 3.316 0 .894-.766 1.021-2.041 1.277"/><path fill="#15345A" d="M12.516 30.111c2.551.765 7.653-2.169 7.525-3.189 0-.128 0-.128-.127-.128h-.127c-1.021-1.148-2.679-2.934-4.592-3.827-2.041-.893-3.827-.51-4.976-.382-1.02.127-3.061.509-3.826 1.275-1.148 1.021.893 2.169 1.53 2.169 1.149-.128 3.955-1.021 3.955-1.021.255 0 .638-.127 1.276 0-.894 0-1.786.255-2.552.51-3.444 1.404-2.041 2.424-1.53 3.062 1.913 2.806 5.357 3.444 6.25 3.316.765-.127-.893-.383-1.785-.638-1.404-.636-2.424-1.529-1.021-1.147m66.076-13.904c-2.424 0-3.316-1.148-3.316-2.935 0-1.658 1.02-3.062 3.188-3.062 1.404 0 2.552.383 2.552.383v4.719h1.658v.894h-4.082zm1.276-4.848s-.638-.255-1.531-.255c-1.148 0-1.914.893-1.914 2.041 0 1.403.639 2.168 2.297 2.168h1.148v-3.954zm-2.424-3.444c.383 0 .639.255.639.638s-.256.637-.639.637c-.382 0-.638-.254-.638-.637.001-.383.257-.638.638-.638m1.786 0c.383 0 .638.255.638.638s-.255.637-.638.637-.638-.254-.638-.637.256-.638.638-.638"/><path fill="#15345A" d="M81.399 15.697c0-.255.51-.51.766-.51h1.785v-4.848h1.148v4.975h1.658v.894h-4.591c-.255 0-.766-.128-.766-.511m2.168 1.657c.383 0 .639.255.639.638s-.256.637-.639.637c-.382 0-.638-.254-.638-.637.001-.382.257-.638.638-.638m1.787 0c.383 0 .638.255.638.638s-.255.637-.638.637-.638-.254-.638-.637c-.001-.382.383-.638.638-.638"/><path fill="#15345A" d="M88.415 15.059c-.127.638-.766 1.149-1.786 1.149h-.382c-.256 0-.766-.128-.766-.511 0-.255.51-.51.766-.51h.127c.894 0 1.403-.383 1.403-2.041 0-1.659 1.021-3.062 3.19-3.062 1.785 0 2.678 1.021 2.678 2.806v2.424h1.276v.894h-3.699c-1.787 0-2.424-.511-2.807-1.149m4.082-1.913c0-1.531-.638-2.041-1.658-2.041-1.149 0-1.913.893-1.913 2.041 0 1.402.637 2.168 2.296 2.168h1.275v-2.168z"/><path fill="#15345A" d="M94.41 16.207c-.255 0-.765-.128-.765-.511 0-.255.51-.51.765-.51h1.786V7.277h1.149v8.93H94.41zm5.103-8.93h1.148v8.036h1.659v.895h-2.807z"/><path fill="#15345A" d="M101.81 16.207c-.256 0-.765-.128-.765-.511 0-.255.509-.51.765-.51h.255c1.403 0 2.551-.255 3.444-.638-.893-.893-1.786-1.785-3.061-2.168l.127-.766c1.02-.765 2.424-1.53 3.7-1.53 1.658 0 2.423.892 2.423 1.913 0 .893-.51 1.786-1.53 2.551.509.383 1.148.638 1.786.638h.638v.893h-.766a4.109 4.109 0 0 1-2.551-.893c-1.148.638-2.552.893-4.21.893h-.255v.128zm4.719-2.169c.766-.511 1.147-1.148 1.147-1.913 0-.639-.381-1.276-1.402-1.276-.893 0-1.914.637-2.424 1.02 1.021.511 1.785 1.403 2.679 2.169"/><path fill="#15345A" d="M109.08 16.207c-.255 0-.765-.128-.765-.511 0-.255.51-.51.765-.51h1.914V7.277h1.148v8.93h-3.062zm5.231-8.929h1.148v8.93h-1.148zm11.098 8.93c-2.296 0-3.189-1.021-3.317-2.68h-.383c-.892 0-1.148.511-1.02 1.786l.638 4.082h-1.148l-.638-3.954c-.255-1.658.382-2.807 2.168-2.807h.383c.255-1.403 1.276-2.424 3.062-2.424 1.786 0 2.679 1.021 2.679 2.807v3.19h-2.424zm1.403-3.062c0-1.531-.638-2.041-1.658-2.041-1.149 0-1.913.893-1.913 2.041 0 1.402.637 2.168 2.296 2.168h1.275v-2.168zm2.678 6.123l.128-1.02s1.021.255 2.041.255c1.403 0 2.424-.511 2.424-1.915v-.254h-1.276c-2.423 0-3.317-1.148-3.317-2.934 0-1.658 1.021-3.062 3.19-3.062 1.403 0 2.55.383 2.55.383v4.592h1.659v.894h-1.659v.255c0 1.53-1.02 2.933-3.699 2.933-1.02 0-2.041-.127-2.041-.127m4.465-7.91s-.638-.255-1.53-.255c-1.149 0-1.914.893-1.914 2.041 0 1.402.637 2.168 2.296 2.168h1.148v-3.954z"/><path fill="#15345A" d="M135.486 15.696c0-.255.51-.51.765-.51h1.786v-4.847h1.148v4.974h1.658v.894h-4.592c-.255 0-.765-.128-.765-.511m2.296-7.781c.383 0 .638.255.638.638s-.255.637-.638.637-.638-.254-.638-.637c.001-.383.255-.638.638-.638m1.786 0c.382 0 .638.255.638.638s-.256.637-.638.637c-.383 0-.639-.254-.639-.637s.257-.638.639-.638"/><path fill="#15345A" d="M140.333 16.207c-.255 0-.765-.128-.765-.511 0-.255.51-.51.765-.51h3.827c0-2.423-1.148-3.7-3.316-4.337v-.765l4.719-3.062V8.17l-3.444 2.041c1.913.766 3.062 2.169 3.062 4.848h.892v.892h-5.74v.256z"/><path fill="#15345A" d="M145.69 16.208c-.255 0-.765-.128-.765-.511 0-.255.51-.51.765-.51h2.041c-.638-.383-.893-1.02-.893-2.169 0-1.658 1.021-3.061 3.189-3.061 1.785 0 2.678 1.02 2.678 2.806v3.189h-7.016v.256zm5.869-3.062c0-1.531-.639-2.041-1.658-2.041-1.149 0-1.913.893-1.913 2.041 0 1.402.637 2.168 2.296 2.168h1.275v-2.168zm10.205-5.869h1.147v8.164c0 2.551-1.274 3.699-3.061 3.699s-3.063-.892-3.063-3.572c0-.893.127-1.658.255-2.423l1.149-.256c-.256.894-.383 1.659-.383 2.552 0 2.168 1.02 2.679 2.041 2.679 1.02 0 1.786-.638 1.786-2.679V7.277h.129zm2.296-1.403l1.021-.254c.128.126.511.382 1.021.382s.894-.382 1.021-.382v.764c-.127 0-.511.383-1.147.383-.511 0-.894-.255-1.021-.383l-1.021.256v-.766h.126zm1.02 1.404h1.147v8.93h-1.147v-8.93zm5.231 8.035h4.082c0-2.296-.894-3.571-3.189-4.337l.255-1.02c2.68.765 3.955 2.295 4.082 5.23h.894v.893h-5.995v-.766h-.129z"/><path fill="#15345A" d="M175.795 16.207c-.255 0-.765-.128-.765-.511 0-.255.51-.51.765-.51h.511c.894 0 1.275-.382 1.275-1.786v-2.551h1.148v2.296c0 1.276 0 2.041 1.02 2.041.767 0 1.276-.382 1.276-2.041v-2.551h1.147v3.189c0 1.276.512 1.53 1.913 1.53h.384c0-.509.128-1.275.128-1.786 0-1.402-.128-2.55-.384-3.443l1.149-.128c.255.893.383 2.169.383 3.571 0 .894-.128 1.914-.256 2.807h-1.404c-1.529 0-2.296-.255-2.678-1.021-.255.511-.765 1.149-1.913 1.149-.893 0-1.404-.383-1.659-1.149-.255.638-.765 1.021-1.657 1.021h-.384v-.127zm4.976-8.292c.383 0 .638.255.638.638s-.255.637-.638.637-.639-.254-.639-.637.256-.638.639-.638m1.019-1.531c.383 0 .639.256.639.638s-.256.638-.639.638c-.382 0-.637-.256-.637-.638-.128-.255.255-.638.637-.638m.895 1.531c.382 0 .638.255.638.638s-.256.637-.638.637c-.383 0-.64-.254-.64-.637s.257-.638.64-.638m5.229-.637h1.147v8.93h-1.147zm1.914 11.991l.127-.894c.383.128.766.255 1.274.255 1.021 0 1.66-.509 1.66-2.168v-6.123h1.147v5.995c0 1.787-.639 3.19-2.935 3.19-.508-.128-.891-.128-1.273-.255m14.924-3.955h1.659v.893h-1.659c-.128 1.913-1.275 2.934-3.316 2.934-1.785 0-3.189-.893-3.189-3.573 0-.892.127-1.658.255-2.422l1.149-.256c-.256.893-.383 1.658-.383 2.551 0 2.168 1.146 2.679 2.041 2.679 1.146 0 2.041-.638 2.041-2.552v-5.229h1.146v4.975h.256zm-3.443-5.103c.383 0 .638.255.638.638s-.255.637-.638.637-.639-.254-.639-.637c0-.255.383-.638.639-.638"/><path fill="#15345A" d="M205.9 16.208c-.255 0-.767-.128-.767-.511 0-.255.512-.51.767-.51h1.786v-4.848h1.148v5.869H205.9zm2.296 1.146c.383 0 .639.255.639.638s-.256.637-.639.637c-.382 0-.639-.254-.639-.637.001-.382.257-.638.639-.638m4.721-2.041h4.081c0-2.296-.894-3.571-3.188-4.337l.254-1.02c2.68.765 3.955 2.295 4.082 5.23h.894v.893h-5.995v-.766h-.128z"/><path fill="#15345A" d="M220.57 15.059c-.128.638-.767 1.149-1.786 1.149h-.383c-.255 0-.766-.128-.766-.511 0-.255.511-.51.766-.51h.128c.893 0 1.402-.383 1.402-2.041 0-1.659 1.021-3.062 3.189-3.062 1.786 0 2.68 1.021 2.68 2.806v2.424h1.275v.894h-3.699c-1.658 0-2.423-.511-2.806-1.149m4.21-1.913c0-1.531-.64-2.041-1.659-2.041-1.148 0-1.913.893-1.913 2.041 0 1.402.637 2.168 2.296 2.168h1.276v-2.168z"/><path fill="#15345A" d="M225.928 15.696c0-.255.511-.51.766-.51h4.719c0-.383.128-.893.128-1.276 0-1.913-.637-2.806-2.806-2.806-.511 0-1.021 0-1.532.127v-.892c.384-.128 1.021-.128 1.66-.128 2.806 0 3.826 1.275 3.826 3.699 0 .383 0 .893-.127 1.403h1.02v.894h-6.888c-.256.001-.766-.127-.766-.511"/><path fill="#15345A" d="M232.944 16.208c-.256 0-.766-.128-.766-.511 0-.255.51-.51.766-.51h2.041c-.639-.383-.895-1.02-.895-2.169 0-1.658 1.021-3.061 3.19-3.061 1.786 0 2.678 1.02 2.678 2.806v3.189h-7.015v.256zm5.868-3.062c0-1.531-.639-2.041-1.658-2.041-1.148 0-1.913.893-1.913 2.041 0 1.402.637 2.168 2.296 2.168h1.275v-2.168zm9.694 3.061c-3.188 0-4.464-1.276-4.464-3.7 0-.765.126-1.658.382-2.168l1.276-.255c-.255.638-.511 1.402-.511 2.168 0 1.914.766 2.934 3.443 2.934h2.17v-4.847h1.148v5.868h-3.444zm-1.148-8.292c.383 0 .638.255.638.638s-.255.637-.638.637-.638-.254-.638-.637c.001-.383.256-.638.638-.638m1.913 0c.383 0 .639.255.639.638s-.256.637-.639.637c-.382 0-.639-.254-.639-.637.001-.383.258-.638.639-.638m4.848-.637h1.147v8.93h-1.147zm.894 11.991l.127-.894c.383.128.766.255 1.274.255 1.021 0 1.66-.509 1.66-2.168v-6.123h1.147v5.995c0 1.787-.639 3.19-2.935 3.19-.381-.128-.891-.128-1.273-.255m5.867-3.956h4.082c0-2.296-.894-3.571-3.188-4.337l.254-1.02c2.68.892 4.082 2.423 4.082 5.485v.638h-5.229v-.766zm7.016-8.036h1.147v8.036h1.659v.895h-2.806z"/><path fill="#15345A" d="M270.192 16.208c-.256 0-.766-.128-.766-.511 0-.255.51-.51.766-.51h1.785v-4.848h1.148v4.975h1.658v.894h-4.591zm2.424 1.146c.383 0 .638.255.638.638s-.255.637-.638.637-.639-.254-.639-.637c-.127-.382.256-.638.639-.638"/><path fill="#15345A" d="M274.274 16.208c-.255 0-.767-.128-.767-.511 0-.255.512-.51.767-.51h2.041c-.638-.383-.895-1.02-.895-2.169 0-1.658 1.021-3.061 3.19-3.061 1.786 0 2.678 1.02 2.678 2.806v3.189h-7.015v.256zm5.869-3.062c0-1.531-.64-2.041-1.659-2.041-1.148 0-1.913.893-1.913 2.041 0 1.402.637 2.168 2.296 2.168h1.276v-2.168zM86.374 35.341h-1.147v-8.547l-3.828 6.379h-.765l-3.827-6.379v8.547h-1.148v-10.97h.893l4.465 7.399 4.464-7.399h.893zm10.077-3.699c0 2.296-1.785 3.954-3.954 3.954-2.296 0-3.954-1.785-3.954-3.954s1.786-3.954 3.954-3.954c2.169 0 3.954 1.658 3.954 3.954m-1.147 0c0-1.658-1.275-2.934-2.807-2.934-1.658 0-2.806 1.276-2.806 2.934 0 1.658 1.276 2.934 2.806 2.934 1.532 0 2.807-1.403 2.807-2.934m10.077-.638v4.337h-1.147v-4.209c0-1.531-.894-2.424-2.297-2.424-.893 0-1.913.51-2.551 1.403v5.358h-1.149V23.988h1.149v4.847c.638-.765 1.658-1.147 2.807-1.147 1.785-.128 3.188 1.275 3.188 3.316m9.184 4.337h-1.147v-.893c-.639.638-1.531 1.021-2.68 1.021-2.168 0-3.826-1.786-3.826-3.955 0-2.168 1.785-3.954 3.826-3.954 1.149 0 2.041.383 2.68 1.02v-.892h1.147v7.653zm-1.147-2.168v-3.189c-.639-.893-1.531-1.404-2.552-1.404-1.658 0-2.933 1.404-2.933 2.934 0 1.659 1.275 2.934 2.933 2.934 1.021.127 1.913-.382 2.552-1.275m15.689-2.169v4.337h-1.147v-4.209c0-1.531-.766-2.424-2.169-2.424-.893 0-1.787.383-2.424 1.403.128.255.128.638.128.893v4.337h-1.021v-4.209c0-1.531-.765-2.424-2.169-2.424-.892 0-1.658.51-2.296 1.403v5.358h-1.148v-7.527h1.148v.893c.638-.638 1.404-1.147 2.551-1.147 1.149 0 2.041.509 2.552 1.403.766-.894 1.658-1.403 2.933-1.403 1.788-.128 3.062 1.275 3.062 3.316m14.288 0v4.337h-1.147v-4.209c0-1.531-.766-2.424-2.169-2.424-.893 0-1.787.383-2.424 1.403.128.255.128.638.128.893v4.337h-1.149v-4.209c0-1.531-.765-2.424-2.168-2.424-.893 0-1.659.51-2.297 1.403v5.358h-1.147v-7.527h1.147v.893c.638-.638 1.404-1.147 2.552-1.147s2.041.509 2.551 1.403c.766-.894 1.658-1.403 2.935-1.403 1.913-.128 3.188 1.275 3.188 3.316m9.057 1.021h-6.379c.128 1.403 1.148 2.55 2.807 2.55 1.021 0 1.786-.381 2.169-1.147h1.147c-.384 1.275-1.785 2.168-3.444 2.168-2.296 0-3.826-1.785-3.826-3.954s1.658-3.954 3.826-3.954c2.169 0 3.572 1.658 3.7 3.954v.383zm-6.379-.893h5.357c-.128-1.531-1.147-2.552-2.551-2.552-1.658 0-2.678 1.149-2.806 2.552m15.436 4.209h-1.148v-.893c-.639.638-1.53 1.021-2.68 1.021-2.168 0-3.826-1.786-3.826-3.955 0-2.168 1.785-3.954 3.826-3.954 1.149 0 2.041.383 2.68 1.02v-4.847h1.148v11.608zm-1.021-2.168v-3.189c-.639-.893-1.531-1.404-2.552-1.404-1.658 0-2.934 1.404-2.934 2.934 0 1.659 1.275 2.934 2.934 2.934.894.127 1.914-.382 2.552-1.275m10.204-1.277c.639-.255.894-.764.894-1.53 0-1.021-.894-1.786-2.168-1.786h-2.936v6.761h2.936c1.529 0 2.551-.766 2.551-1.913 0-.637-.51-1.276-1.277-1.532m-1.53-.254h-1.785v-2.169h1.913c.893 0 1.402.383 1.402 1.021.127.638-.509 1.148-1.53 1.148m-1.785.765h2.041c1.021 0 1.657.383 1.657 1.021 0 .765-.637 1.147-1.657 1.147h-2.041v-2.168zm6.123-3.827c-.256 0-.511.255-.511.511 0 .255.255.51.511.51.382 0 .51-.255.51-.51 0-.256-.255-.511-.51-.511m-.512 2.169h.894v4.72h-.894zm4.594-.128c-.64 0-1.148.255-1.531.511v-.382h-.893v4.72h.893v-3.19c.383-.51.892-.765 1.403-.765.766 0 1.274.51 1.274 1.403v2.679h.895v-2.679c0-1.404-.767-2.297-2.041-2.297m7.397.765v3.955h-1.147v-10.97h4.082c2.424 0 4.21 1.402 4.21 3.571 0 1.786-1.148 3.062-3.063 3.444l3.572 4.082h-1.404l-3.442-3.955h-2.808v-.127zm2.935-1.148c1.786 0 3.062-.893 3.062-2.424 0-1.53-1.275-2.423-3.062-2.423h-2.935v4.847h2.935zm12.883 5.103h-1.146v-.893c-.64.638-1.531 1.021-2.681 1.021-2.168 0-3.825-1.786-3.825-3.955 0-2.168 1.784-3.954 3.825-3.954 1.149 0 2.041.383 2.681 1.02v-.892h1.146v7.653zm-1.147-2.168v-3.189c-.64-.893-1.531-1.404-2.552-1.404-1.658 0-2.934 1.404-2.934 2.934 0 1.659 1.275 2.934 2.934 2.934 1.021.127 1.913-.382 2.552-1.275m4.082-.128c.255 1.021 1.021 1.658 2.423 1.658 1.276 0 2.041-.51 2.041-1.275 0-.638-.51-1.021-1.276-1.149l-1.658-.255c-1.274-.254-2.169-.765-2.169-2.041 0-1.403 1.149-2.168 2.936-2.168 1.53 0 3.061.637 3.188 2.423h-1.02c-.127-1.02-.894-1.53-2.168-1.53-1.149 0-1.914.51-1.914 1.275 0 .51.383 1.021 1.531 1.149l1.529.255c1.149.127 2.298.637 2.298 2.041 0 1.403-1.276 2.296-3.189 2.296s-3.19-.893-3.445-2.551h.895v-.128zm14.542-2.041v4.337h-1.148v-4.209c0-1.531-.893-2.424-2.296-2.424-.893 0-1.913.51-2.552 1.403v5.358h-1.148V23.988h1.148v4.847c.639-.765 1.659-1.147 2.807-1.147 1.914-.128 3.189 1.275 3.189 3.316m2.04-5.995c0-.383.383-.765.766-.765s.766.382.766.765-.383.765-.766.765-.766-.382-.766-.765m1.405 10.332h-1.148v-7.526h1.148v7.526zm9.693 0h-1.147v-.893c-.639.638-1.53 1.021-2.68 1.021-2.168 0-3.825-1.786-3.825-3.955 0-2.168 1.784-3.954 3.825-3.954 1.149 0 2.041.383 2.68 1.02v-4.847h1.147v11.608zm-1.147-2.168v-3.189c-.639-.893-1.53-1.404-2.552-1.404-1.657 0-2.933 1.404-2.933 2.934 0 1.659 1.275 2.934 2.933 2.934 1.021.127 1.913-.382 2.552-1.275m-152.31 15.18l-1.403 3.189h-1.275l4.974-11.099H81.4l4.974 11.099h-1.275l-1.403-3.189h-5.741zm2.807-6.506l-2.424 5.485h4.848l-2.424-5.485zm7.016-1.786h1.148v11.481h-1.148zm18.241 11.481h-1.147v-8.546l-3.829 6.378h-.765l-3.826-6.378v8.546h-1.148v-10.97h.892l4.466 7.398 4.463-7.398h.894zm9.821 0h-1.147v-.767c-.638.639-1.531 1.021-2.679 1.021-2.169 0-3.827-1.786-3.827-3.955 0-2.168 1.786-3.954 3.827-3.954 1.148 0 2.041.383 2.679 1.021v-.893h1.147v7.527zm-1.147-2.041v-3.189c-.638-.893-1.531-1.403-2.552-1.403-1.658 0-2.933 1.403-2.933 2.934 0 1.659 1.275 2.934 2.933 2.934 1.021-.001 1.914-.383 2.552-1.276m4.72 0v2.041h-1.148V40.061h1.148v8.037l4.209-3.955h1.403l-3.316 3.062 3.827 4.337h-1.403l-3.19-3.572zm12.373 2.041c-.638.255-1.147.255-1.658.255-1.658 0-2.551-1.021-2.551-2.935v-3.826h-2.041v-1.021h2.041v-2.807h1.147v2.807h2.807v1.021h-2.807v3.826c0 1.403.511 1.914 1.66 1.914.381 0 .892-.128 1.275-.256l.127 1.022zm8.547-3.7c0 2.297-1.785 3.955-3.954 3.955-2.296 0-3.954-1.786-3.954-3.955 0-2.168 1.785-3.954 3.954-3.954s3.954 1.786 3.954 3.954m-1.147 0c0-1.658-1.276-2.934-2.807-2.934s-2.806 1.275-2.806 2.934c0 1.659 1.275 2.935 2.806 2.935 1.531 0 2.807-1.276 2.807-2.935m9.822 3.7h-1.148v-.894a4.048 4.048 0 0 1-2.807 1.148c-1.913 0-3.189-1.276-3.189-3.444v-4.337h1.148v4.209c0 1.531.893 2.424 2.297 2.424.892 0 1.913-.51 2.551-1.403v-5.357h1.148v7.654zm14.542-4.209v4.337h-1.148v-4.21c0-1.531-.765-2.424-2.168-2.424-.894 0-1.787.383-2.424 1.403.127.255.127.638.127.893v4.337h-1.021V47.46c0-1.531-.765-2.424-2.168-2.424-.894 0-1.658.51-2.297 1.403v5.357h-1.147V44.27h1.147v.894c.639-.638 1.403-1.147 2.552-1.147s2.041.51 2.552 1.403c.765-.894 1.658-1.403 2.933-1.403 1.786-.129 3.062 1.147 3.062 3.316m16.455-1.276v5.485h-.894l-.128-2.298c-.764 1.532-2.167 2.553-4.336 2.553-3.188 0-5.741-2.553-5.741-5.613 0-3.316 2.553-5.74 5.741-5.74 2.423 0 4.592 1.403 5.23 3.827h-1.275c-.511-1.786-2.297-2.807-3.955-2.807-2.551 0-4.592 2.041-4.592 4.72 0 2.552 1.913 4.593 4.465 4.593 2.296 0 3.826-1.658 4.082-3.827h-4.21v-1.021h5.485l.128.128zm3.444 5.485h-1.021V40.061h1.149v11.481zm9.822-3.7c0 2.297-1.786 3.955-3.955 3.955-2.295 0-3.954-1.786-3.954-3.955 0-2.168 1.785-3.954 3.954-3.954 2.296 0 3.955 1.786 3.955 3.954m-1.02 0c0-1.658-1.275-2.934-2.807-2.934-1.657 0-2.806 1.275-2.806 2.934 0 1.659 1.275 2.935 2.806 2.935 1.532 0 2.807-1.276 2.807-2.935m10.587 0c0 2.169-1.657 3.955-3.827 3.955-1.146 0-2.041-.383-2.678-1.021v.893h-1.147v-11.48h1.147v4.848c.637-.638 1.658-1.021 2.678-1.021 2.17-.128 3.827 1.658 3.827 3.826m-1.147 0c0-1.658-1.276-2.934-2.936-2.934-1.02 0-1.913.511-2.55 1.403V49.5c.637.893 1.53 1.402 2.55 1.402 1.66-.125 2.936-1.401 2.936-3.06m10.205 3.7h-1.147v-.767c-.639.639-1.531 1.021-2.68 1.021-2.169 0-3.826-1.786-3.826-3.955 0-2.168 1.785-3.954 3.826-3.954 1.148 0 2.041.383 2.68 1.021v-.893h1.147v7.527zm-1.148-2.041v-3.189c-.639-.893-1.531-1.403-2.553-1.403-1.657 0-2.933 1.403-2.933 2.934 0 1.659 1.275 2.934 2.933 2.934 1.022-.001 1.914-.383 2.553-1.276m3.444-9.44h1.147v11.481h-1.147zm7.654.51h1.148v10.972h-1.148zm10.716 6.762v4.337h-1.148v-4.21c0-1.531-.893-2.424-2.296-2.424-.894 0-1.914.51-2.552 1.403v5.357h-1.148V44.27h1.148v.894c.638-.765 1.658-1.147 2.807-1.147 1.785-.129 3.189 1.147 3.189 3.316m2.041-6.124c0-.383.382-.766.765-.766s.766.383.766.766-.383.766-.766.766c-.512 0-.765-.256-.765-.766m1.275 10.333h-1.148v-7.526h1.148v7.526zm7.398 0c-.639.255-1.148.255-1.658.255-1.658 0-2.551-1.021-2.551-2.935v-3.826h-2.041v-1.021h2.041v-2.807h1.146v2.807h2.808v1.021h-2.808v3.826c0 1.403.511 1.914 1.659 1.914.382 0 .893-.128 1.275-.256l.129 1.022zm1.787-10.333c0-.383.382-.766.766-.766.382 0 .765.383.765.766s-.383.766-.765.766c-.513 0-.766-.256-.766-.766m1.275 10.333h-1.148v-7.526h1.148v7.526zm9.694 0h-1.147v-.767c-.639.639-1.531 1.021-2.68 1.021-2.169 0-3.826-1.786-3.826-3.955 0-2.168 1.785-3.954 3.826-3.954 1.148 0 2.041.383 2.68 1.021v-.893h1.147v7.527zm-1.147-2.041v-3.189c-.639-.893-1.531-1.403-2.553-1.403-1.657 0-2.933 1.403-2.933 2.934 0 1.659 1.275 2.934 2.933 2.934 1.022-.001 2.041-.383 2.553-1.276m8.419 2.041c-.639.255-1.147.255-1.658.255-1.658 0-2.551-1.021-2.551-2.935v-3.826h-2.041v-1.021h2.041v-2.807h1.146v2.807h2.808v1.021h-2.808v3.826c0 1.403.512 1.914 1.659 1.914.382 0 .894-.128 1.275-.256l.129 1.022zm1.658-10.333c0-.383.383-.766.766-.766.382 0 .766.383.766.766s-.384.766-.766.766c-.383 0-.766-.256-.766-.766m1.274 10.333h-1.146v-7.526h1.146v7.526zm5.997 0h-1.021l-3.571-7.526h1.148l2.934 6.123 2.934-6.123h1.147zm11.609-3.317h-6.379c.128 1.403 1.147 2.552 2.807 2.552 1.021 0 1.786-.383 2.169-1.148h1.147c-.382 1.275-1.785 2.169-3.443 2.169-2.297 0-3.827-1.786-3.827-3.955 0-2.168 1.658-3.954 3.827-3.954 2.168 0 3.571 1.658 3.699 3.954v.382zm-6.379-.765h5.357c-.128-1.531-1.147-2.552-2.551-2.552-1.659.001-2.678 1.149-2.806 2.552m8.675 1.786c.255 1.021 1.021 1.658 2.424 1.658 1.275 0 2.041-.511 2.041-1.275 0-.638-.511-1.021-1.276-1.147l-1.658-.257c-1.275-.254-2.169-.764-2.169-2.041 0-1.402 1.148-2.167 2.935-2.167 1.531 0 3.061.638 3.188 2.424h-1.02c-.128-1.021-.895-1.531-2.169-1.531-1.148 0-1.913.511-1.913 1.274 0 .512.383 1.021 1.53 1.149l1.53.255c1.148.128 2.297.637 2.297 2.041 0 1.403-1.275 2.296-3.189 2.296-1.913 0-3.189-.893-3.444-2.551h.894v-.128z"/><path fill="#55C0A6" d="M75.276 64.808h110.597v4.082H75.276z"/></svg>